<?xml version="1.0" standalone="no"?>
<!DOCTYPE svg PUBLIC "-//W3C//DTD SVG 20010904//EN"
 "http://www.w3.org/TR/2001/REC-SVG-20010904/DTD/svg10.dtd">
<svg version="1.0" xmlns="http://www.w3.org/2000/svg"
 width="200.000000pt" height="198.000000pt" viewBox="0 0 200.000000 198.000000"
 preserveAspectRatio="xMidYMid meet">

<g transform="translate(0.000000,198.000000) scale(0.100000,-0.100000)"
fill="#000000" stroke="none">
<path d="M870 1939 c-141 -16 -296 -75 -425 -162 -281 -190 -446 -550 -407
-886 78 -668 777 -1052 1377 -756 326 161 528 488 528 855 0 359 -186 669
-504 844 -93 51 -230 93 -341 105 -108 12 -120 12 -228 0z m259 -364 c116 -28
188 -70 281 -164 99 -99 143 -179 166 -298 39 -207 -12 -386 -154 -535 -118
-124 -265 -188 -432 -188 -334 0 -600 266 -600 599 0 203 97 385 267 502 127
88 314 121 472 84z"/>
<path d="M901 1460 c-61 -13 -131 -41 -131 -52 0 -6 27 -49 60 -96 l59 -86 99
0 98 -1 62 87 c34 48 62 91 62 97 0 16 -125 51 -199 56 -36 2 -86 0 -110 -5z"/>
<path d="M626 1299 c-41 -49 -73 -109 -92 -174 -18 -62 -25 -197 -11 -211 4
-4 56 8 115 28 l107 35 6 45 c4 24 16 63 27 85 l21 40 -67 91 c-37 50 -70 91
-74 92 -3 0 -18 -14 -32 -31z"/>
<path d="M1249 1238 l-66 -92 21 -41 c11 -22 23 -60 26 -84 l5 -44 100 -34
c54 -18 104 -33 111 -33 36 0 15 198 -31 291 -28 55 -81 129 -93 129 -4 0 -37
-42 -73 -92z"/>
<path d="M950 1103 c-31 -12 -70 -58 -76 -89 -8 -43 11 -99 41 -118 14 -9 46
-16 75 -16 44 0 56 5 81 29 25 25 29 37 29 83 0 46 -4 58 -28 81 -27 26 -92
42 -122 30z"/>
<path d="M680 824 c-52 -19 -101 -36 -108 -39 -22 -8 25 -80 93 -143 62 -57
157 -109 219 -119 l36 -6 0 84 c0 46 3 100 6 120 6 35 5 37 -31 49 -21 7 -55
30 -76 51 -22 22 -40 39 -41 38 -2 0 -46 -16 -98 -35z"/>
<path d="M1161 826 c-18 -18 -50 -42 -72 -51 l-39 -18 0 -120 0 -120 42 7 c52
9 149 57 205 102 46 37 113 124 113 145 0 9 -38 27 -98 48 -53 19 -102 35
-107 38 -6 2 -26 -12 -44 -31z"/>
</g>
</svg>
